PathFileType	4	(X/Y/Z)	7_coords_data.trc
DataRate	CameraRate	NumFrames	NumMarkers	Units	OrigDataRate	OrigDataStartFrame	OrigNumFrames
30.0	30.0	4	21	m	30.0	1	56
Frame#	Time	THUMB_TIP	THUMB_IP	THUMB_MCP	THUMB_CMC	INDEX_TIP	INDEX_DIP	INDEX_PIP	INDEX_MCP	MIDDLE_TIP	MIDDLE_DIP	MIDDLE_PIP	MIDDLE_MCP	RING_TIP	RING_DIP	RING_PIP	RING_MCP	PINKY_TIP	PINKY_DIP	PINKY_PIP	PINKY_MCP	WRIST
X1	Y1	Z1	X2	Y2	Z2	X3	Y3	Z3	X4	Y4	Z4	X5	Y5	Z5	X6	Y6	Z6	X7	Y7	Z7	X8	Y8	Z8	X9	Y9	Z9	X10	Y10	Z10	X11	Y11	Z11	X12	Y12	Z12	X13	Y13	Z13	X14	Y14	Z14	X15	Y15	Z15	X16	Y16	Z16	X17	Y17	Z17	X18	Y18	Z18	X19	Y19	Z19	X20	Y20	Z20	X21	Y21	Z21
0	0.0	-0.04369940185546875	-0.07507140350341797	0.9875540161132812	-0.046152099609375	-0.056186698913574216	1.004010009765625	-0.0582307014465332	-0.03836069869995117	1.02577001953125	-0.06013299942016601	-0.006777639865875244	1.0478900146484376	-0.019517900466918946	-0.019670000076293947	0.91268701171875	-0.0351338996887207	-0.017069400787353514	0.93047998046875	-0.04632410049438476	-0.01334239959716797	0.9491480102539063	-0.05401380157470703	-0.00942572021484375	0.9836669921875	-0.013623299598693848	0.02519849967956543	0.900708984375	-0.026047300338745118	0.021770099639892578	0.9232349853515625	-0.03736299896240235	0.01780380058288574	0.9456119995117187	-0.05068899917602539	0.009972490310668946	0.9799199829101563	-0.009195050239562989	0.0430348014831543	0.9165360107421875	-0.020992099761962892	0.040724601745605465	0.9392219848632812	-0.03272200012207031	0.03825899887084961	0.9594719848632812	-0.038935699462890626	0.028847000122070313	0.9903469848632812	-0.0036291298866271975	0.07622889709472656	0.9604940185546875	-0.014354200363159179	0.06660130310058594	0.97518798828125	-0.021653099060058592	0.057708499908447265	0.9860809936523437	-0.03282619857788086	0.04300970077514649	1.0029600219726562	-0.07156230163574219	0.021156700134277343	1.0576600341796876
1	0.03333333333333333	-0.04399359893798828	-0.07465840148925781	0.987531982421875	-0.04663479995727539	-0.055244300842285154	1.0051400146484375	-0.057951000213623045	-0.03908290100097656	1.0268900146484374	-0.05852840042114258	-0.009376819610595704	1.0446500244140624	-0.01868980026245117	-0.01896500015258789	0.913177001953125	-0.032826099395751956	-0.016643299102783202	0.93035302734375	-0.04503730010986328	-0.014471699714660644	0.9500469970703125	-0.05392959976196289	-0.011457900047302245	0.9859829711914062	-0.012709699630737304	0.024127799987792967	0.9013140258789063	-0.024672300338745116	0.02131679916381836	0.9227509765625	-0.03800130081176758	0.01757080078125	0.9470759887695313	-0.04946070098876953	0.011418700218200684	0.9834400024414063	-0.008728659629821778	0.042827301025390625	0.91777099609375	-0.019452499389648437	0.04038309860229492	0.9384660034179687	-0.03082979965209961	0.037104000091552736	0.9608579711914063	-0.04085910034179688	0.029146299362182618	0.9911690063476563	-0.003926199913024902	0.07691840362548828	0.9612210083007813	-0.012864700317382812	0.0668479995727539	0.975072998046875	-0.020719600677490235	0.05764899826049805	0.9871380004882813	-0.032138099670410154	0.04217449951171875	1.0049199829101563	-0.0730779037475586	0.02004129981994629	1.05806005859375
2	0.06666666666666667	-0.04374319839477539	-0.07514209747314453	0.98825	-0.04617449951171875	-0.05565430068969727	1.005739990234375	-0.057310600280761716	-0.03941139984130859	1.0274599609375	-0.05784600067138672	-0.009647279739379884	1.0451400146484375	-0.01826689910888672	-0.019570999145507813	0.9136409912109374	-0.03228810119628906	-0.017168399810791015	0.9309110107421875	-0.04438619995117187	-0.01493340015411377	0.950656982421875	-0.05313790130615234	-0.011801899909973145	0.9865269775390625	-0.01219849967956543	0.023697500228881837	0.9017689819335938	-0.024053600311279295	0.020918399810791015	0.9232470092773437	-0.037345798492431644	0.017171600341796874	0.947614013671875	-0.04864920043945312	0.011087499618530273	0.9838809814453126	-0.008112330436706543	0.04254130172729492	0.918302001953125	-0.018819299697875977	0.04007350158691406	0.93897998046875	-0.030118900299072264	0.03680720138549805	0.9613380126953125	-0.040060001373291014	0.02884189987182617	0.991677978515625	-0.003106240034103393	0.07665969848632813	0.9618679809570313	-0.012007800102233887	0.06658370208740234	0.9757760009765625	-0.019860300064086914	0.057350799560546874	0.987781005859375	-0.03133699989318848	0.041845500946044924	1.0054400024414063	-0.07242410278320313	0.019837400436401368	1.0586199951171875
3	0.1	-0.043218299865722655	-0.07537339782714844	0.9888800048828125	-0.04564979934692383	-0.05586600112915039	1.0063099975585938	-0.056783199310302734	-0.039608001708984375	1.0280999755859375	-0.0572515983581543	-0.009883649826049805	1.045780029296875	-0.017601499557495116	-0.0198617000579834	0.9143040161132813	-0.03164150047302246	-0.017422800064086915	0.9314869995117188	-0.04376440048217774	-0.01520680046081543	0.9512219848632812	-0.05259999847412109	-0.01210990047454834	0.9871409912109375	-0.011373200416564942	0.023344900131225584	0.9024290161132813	-0.023327600479125975	0.020601699829101563	0.9238889770507812	-0.03669079971313476	0.016880500793457032	0.9481939697265624	-0.04812730026245117	0.010800000190734863	0.984677978515625	-0.007406189918518067	0.042217899322509765	0.9189000244140625	-0.018185699462890625	0.03979489898681641	0.9395900268554688	-0.029555000305175782	0.036493698120117185	0.961968994140625	-0.03950379943847656	0.028567399978637695	0.9923660278320312	-0.002480240106582641	0.07643430328369141	0.9625269775390625	-0.01138029956817627	0.0663302001953125	0.9764429931640625	-0.019263099670410157	0.05710800170898438	0.9884210205078126	-0.030762800216674803	0.04158789825439453	1.0060499877929687	-0.07174400329589843	0.019526199340820314	1.0591800537109375
